# xmcd
#
# Track frame offsets: 
#        150
#        11415
#        20592
#        36760
#        48602
#        63255
#        77347
#        91465
#        105070
#        117130
#        128912
#        140367
#        153345
#        164675
#        177222
#        190135
#        204307
#        221225
#        233107
#        249542
#        262672
#        275420
#        291475
#        303352
#        318380
#
# Disc length: 4409 seconds
#
# Revision: 9
# Processed by: cddbd v1.5.2PL0 Copyright (c) Steve Scherf et al.
# Submitted via: ExactAudioCopy v1.1
#
DISCID=55113719
DTITLE=Various Artist - Mercury Blues 'N' Rhythm Story 1945-1955 - Di
DTITLE=sc 4
DYEAR=1996
DGENRE=R&B
TTITLE0=Lee Graves - Papa Said Yes, Mama Said No, No, No (mono)
TTITLE1=Lee Graves - I'm From Texas (mono)
TTITLE2=Luther Stoneham - Sittin' Here Wonderin' (mono)
TTITLE3=Luther Stoneham - January 11, 1949 Blues (mono)
TTITLE4=L.C. 'Lightnin' Jr.' Williams - I Don't Want No Woman (mono)
TTITLE5=L.C. 'Lightnin' Jr.' Williams - Louise (mono)
TTITLE6=L.C. 'Lightnin' Jr.' Williams - I Don't Like To Travel (mono)
TTITLE7=Smokey Hogg - Miss Georgia (mono)
TTITLE8=Smokey Hogg - She's Always On My Mind (mono)
TTITLE9=Smokey Hogg - Dirty Mistreater (mono)
TTITLE10=Smokey Hogg - I'm Looking For My Baby (mono)
TTITLE11=Violet Hall - (All Alone) I Sit And Cry (mono)
TTITLE12=Violet Hall - Six Foot Papa (I'm A Whole Lot Of Woman) (mono)
TTITLE13=John Hogg - Got A Mean Woman (mono)
TTITLE14=John Hogg - Why Did You Leave Me (mono)
TTITLE15=Lightnin' Hopkins - Sad News From Korea (mono)
TTITLE16=Lightnin' Hopkins - Let Me Fly Your Kite (mono)
TTITLE17=Lightnin' Hopkins - Gone With The Wind (mono)
TTITLE18=Lightnin' Hopkins - She's Almost Dead (mono)
TTITLE19=Elmore 'Elmo' Nixon - (In Love With A) Married Woman Blues (m
TTITLE19=ono)
TTITLE20=Elmore 'Elmo' Nixon - Playboy Blues (mono)
TTITLE21=Elmore 'Elmo' Nixon - Cave Man Blues (mono)
TTITLE22=Elmore 'Elmo' Nixon - Million Dollar Blues (mono)
TTITLE23=Lightnin' Hopkins - Ain't It A Shame (mono)
TTITLE24=Lightnin' Hopkins - Crazy 'Bout My Baby (mono)
EXTD=
EXTT0=
EXTT1=
EXTT2=
EXTT3=
EXTT4=
EXTT5=
EXTT6=
EXTT7=
EXTT8=
EXTT9=
EXTT10=
EXTT11=
EXTT12=
EXTT13=
EXTT14=
EXTT15=
EXTT16=
EXTT17=
EXTT18=
EXTT19=
EXTT20=
EXTT21=
EXTT22=
EXTT23=
EXTT24=
PLAYORDER=
